<svg width="29" height="29" viewBox="0 0 29 29" fill="none" xmlns="http://www.w3.org/2000/svg">
<path d="M16.2047 0.424255V2.35269C18.1121 2.35269 19.899 2.8348 21.5655 3.79902C23.1516 4.74315 24.4165 6.00869 25.3602 7.59563C26.3239 9.26292 26.8058 11.0507 26.8058 12.9591H28.7332C28.7332 10.6892 28.161 8.57994 27.0166 6.63141C25.9123 4.74315 24.4165 3.2466 22.5292 2.14177C20.5817 0.99676 18.4735 0.424255 16.2047 0.424255ZM6.23617 3.31691C5.69408 3.31691 5.22225 3.48766 4.8207 3.82915L1.71869 6.99299L1.80904 6.93273C1.3071 7.35458 0.975821 7.87686 0.815199 8.49959C0.674655 9.12231 0.714811 9.72495 0.935665 10.3075C1.49784 11.8743 2.25075 13.4814 3.1944 15.1286C4.51953 17.3985 6.09563 19.4374 7.9227 21.2453C10.854 24.1983 14.4981 26.5285 18.855 28.2359H18.8851C19.4674 28.4368 20.0496 28.477 20.6319 28.3565C21.2342 28.2359 21.7663 27.9748 22.228 27.573L25.2698 24.5297C25.6714 24.128 25.8721 23.6358 25.8721 23.0533C25.8721 22.4506 25.6714 21.9484 25.2698 21.5467L21.3246 17.5693C20.923 17.1675 20.4211 16.9666 19.8187 16.9666C19.2164 16.9666 18.7145 17.1675 18.3129 17.5693L16.4156 19.4977C14.8897 18.7745 13.5645 17.8806 12.4402 16.816C11.3158 15.7312 10.4224 14.4155 9.75981 12.8687L11.6873 10.9403C12.1089 10.4983 12.3197 9.97604 12.3197 9.37341C12.3197 8.75068 12.0788 8.24849 11.5969 7.86682L11.6873 7.95721L7.65165 3.82915C7.2501 3.48766 6.77827 3.31691 6.23617 3.31691ZM16.2047 4.28113V6.20957C17.4295 6.20957 18.5538 6.51088 19.5778 7.11352C20.6218 7.71616 21.445 8.53976 22.0473 9.58433C22.6497 10.6088 22.9508 11.7337 22.9508 12.9591H24.8783C24.8783 11.3922 24.4868 9.93587 23.7038 8.58998C22.9207 7.28427 21.8767 6.2397 20.5716 5.45627C19.2264 4.67284 17.7708 4.28113 16.2047 4.28113ZM6.23617 5.24535C6.29641 5.24535 6.36668 5.27548 6.44699 5.33574L10.3923 9.37341C10.4123 9.45376 10.3923 9.52407 10.332 9.58433L7.47095 12.4167L7.68177 13.0194L8.07328 13.8631C8.39452 14.546 8.76596 15.2089 9.18759 15.8518C9.76985 16.7557 10.4123 17.5291 11.115 18.1719C12.0587 19.0959 13.1931 19.9396 14.5182 20.703C15.1808 21.0846 15.743 21.3659 16.2047 21.5467L16.8071 21.8179L19.7284 18.8951C19.7685 18.8549 19.7986 18.8348 19.8187 18.8348C19.8388 18.8348 19.8689 18.8549 19.9091 18.8951L23.9748 22.9629C24.015 23.003 24.035 23.0332 24.035 23.0533C24.035 23.0533 24.015 23.0733 23.9748 23.1135L20.9632 26.0966C20.5214 26.4782 20.0396 26.5787 19.5176 26.3979C15.4217 24.8109 12.0085 22.6415 9.27794 19.8894C7.59142 18.202 6.11571 16.2836 4.85081 14.1342C3.94732 12.5875 3.2446 11.0909 2.74266 9.64459V9.61446C2.66235 9.43367 2.65231 9.22275 2.71254 8.98169C2.77277 8.72055 2.8832 8.51967 3.04382 8.37906L6.02536 5.33574C6.08559 5.27548 6.15586 5.24535 6.23617 5.24535ZM16.2047 8.138V10.0664C17.0078 10.0664 17.6905 10.3477 18.2527 10.9101C18.8148 11.4726 19.0959 12.1556 19.0959 12.9591H21.0234C21.0234 12.0953 20.8025 11.2918 20.3608 10.5485C19.9392 9.8053 19.3569 9.22275 18.6141 8.8009C17.8712 8.35897 17.0681 8.138 16.2047 8.138Z" fill="black"/>
</svg>
