<svg width="24" height="26" viewBox="0 0 24 26" fill="none" xmlns="http://www.w3.org/2000/svg">
<path d="M8.0625 0.640625V5.5625H6.09375V3.59375H0.1875V21.3125H2.15625V22.2969C2.15625 23.0967 2.44336 23.7837 3.01758 24.3579C3.6123 24.9526 4.30957 25.25 5.10938 25.25C5.90918 25.25 6.59619 24.9526 7.17041 24.3579C7.76514 23.7837 8.0625 23.0967 8.0625 22.2969V21.3125H23.8125V5.5625H19.875V0.640625H8.0625ZM10.0312 2.60938H17.9062V7.53125H10.0312V2.60938ZM2.15625 5.5625H4.125V19.3438H2.15625V5.5625ZM6.09375 7.53125H8.0625V9.5H19.875V7.53125H21.8438V19.3438H6.09375V7.53125ZM9.04688 11.4688V13.4375H11.0156V11.4688H9.04688ZM12.9844 11.4688V13.4375H14.9531V11.4688H12.9844ZM16.9219 11.4688V13.4375H18.8906V11.4688H16.9219ZM9.04688 15.4062V17.375H11.0156V15.4062H9.04688ZM12.9844 15.4062V17.375H14.9531V15.4062H12.9844ZM16.9219 15.4062V17.375H18.8906V15.4062H16.9219ZM4.125 21.3125H6.09375V22.2969C6.09375 22.5635 5.99121 22.7993 5.78613 23.0044C5.60156 23.189 5.37598 23.2812 5.10938 23.2812C4.84277 23.2812 4.60693 23.189 4.40186 23.0044C4.21729 22.7993 4.125 22.5635 4.125 22.2969V21.3125Z" fill="black"/>
</svg>
